<?xml version="1.0" encoding="utf-8"?>
<!-- Generator: Adobe Illustrator 21.0.0, SVG Export Plug-In . SVG Version: 6.00 Build 0)  -->
<svg version="1.1" id="Слой_1" xmlns="http://www.w3.org/2000/svg" xmlns:xlink="http://www.w3.org/1999/xlink" x="0px" y="0px"
	 viewBox="0 0 16 16" style="enable-background:new 0 0 16 16;" xml:space="preserve">
<style type="text/css">
	.st0{fill:#6B6B6B;}
</style>
<path id="icon__bell" class="st0" d="M8,16c1.3,0,2.4-1.1,2.4-2.4H5.6C5.6,14.9,6.7,16,8,16 M8,0c0,0-0.6,0-0.6,0.8
	c0,0-3.8,0.9-3.9,4.2c0,0,0.3,6.1-2.1,6.8c0,0-0.3,0.4-0.3,1.1h7h7c0-0.7-0.3-1.1-0.3-1.1c-2.4-0.7-2.1-6.8-2.1-6.8
	c-0.2-3.3-3.9-4.2-3.9-4.2C8.6,0,8,0,8,0 M8,2.7l0.1,0c0.1,0,2.3,0.6,2.4,2.3c-0.1,1.2-0.1,3.8,0.8,5.8H8H4.6
	c0.8-2.1,0.8-4.6,0.8-5.8c0.2-1.7,2.3-2.3,2.4-2.3L8,2.7"/>
</svg>
