<?xml version="1.0" encoding="utf-8"?>
<!-- Generator: Adobe Illustrator 21.0.0, SVG Export Plug-In . SVG Version: 6.00 Build 0)  -->
<svg version="1.1" id="Слой_1" xmlns="http://www.w3.org/2000/svg" xmlns:xlink="http://www.w3.org/1999/xlink" x="0px" y="0px"
	 viewBox="0 0 16 16" style="enable-background:new 0 0 16 16;" xml:space="preserve">
<style type="text/css">
	.st0{fill:#6B6B6B;}
</style>
<path id="blocks_x2F_icons_x2F_cancel_x2F_bright" class="st0" d="M8.8,8l2.7-2.7l-0.8-0.8L8,7.2L5.3,4.5L4.5,5.3L7.2,8l-2.7,2.7
	l0.8,0.8L8,8.8l2.7,2.7l0.8-0.8L8.8,8z M8,14c3.3,0,6-2.7,6-6s-2.7-6-6-6S2,4.7,2,8S4.7,14,8,14z M8,16c-4.4,0-8-3.6-8-8s3.6-8,8-8
	s8,3.6,8,8S12.4,16,8,16z"/>
</svg>
