<?xml version="1.0" encoding="utf-8"?>
<!-- Generator: Adobe Illustrator 21.0.0, SVG Export Plug-In . SVG Version: 6.00 Build 0)  -->
<svg version="1.1" id="Слой_1" xmlns="http://www.w3.org/2000/svg" xmlns:xlink="http://www.w3.org/1999/xlink" x="0px" y="0px"
	 viewBox="0 0 16 16" style="enable-background:new 0 0 16 16;" xml:space="preserve">
<style type="text/css">
	.st0{fill:#6B6B6B;}
</style>
<path id="blocks_x2F_icons_x2F_chat_x2F_bright" class="st0" d="M2.1,13.9l0.7-2.5C1,10.3,0,8.9,0,7.3C0,4.4,3.6,2,8,2s8,2.4,8,5.3
	s-3.6,5.3-8,5.3c-0.3,0-0.6,0-0.9,0L2.1,13.9z M8,4C4.5,4,2,5.8,2,7.3C2,8.1,2.6,9,3.8,9.6l1.3,0.8l-0.2,0.7L7,10.6l0.3,0
	c0.2,0,0.5,0,0.7,0c3.5,0,6-1.8,6-3.3S11.5,4,8,4z"/>
</svg>
