<?xml version="1.0" encoding="utf-8"?>
<!-- Generator: Adobe Illustrator 21.0.0, SVG Export Plug-In . SVG Version: 6.00 Build 0)  -->
<svg version="1.1" id="Слой_1" xmlns="http://www.w3.org/2000/svg" xmlns:xlink="http://www.w3.org/1999/xlink" x="0px" y="0px"
	 viewBox="0 0 16 16" style="enable-background:new 0 0 16 16;" xml:space="preserve">
<style type="text/css">
	.st0{fill:#6B6B6B;}
</style>
<path class="st0" d="M7.2,10c0-0.3,0-0.6,0.1-0.8c0-0.2,0.1-0.4,0.2-0.6c0.1-0.2,0.2-0.3,0.3-0.5s0.3-0.3,0.5-0.6
	c0.1-0.1,0.3-0.3,0.4-0.4C8.8,7.1,9,6.9,9.1,6.8c0.1-0.1,0.2-0.3,0.2-0.5C9.3,6.2,9.4,6,9.4,5.8c0-0.4-0.1-0.8-0.3-1
	C8.8,4.5,8.5,4.4,8,4.4c-0.2,0-0.4,0-0.5,0.1c-0.2,0-0.3,0.1-0.4,0.2C6.9,4.8,6.8,4.9,6.7,5.1S6.6,5.4,6.6,5.6H5.5
	c0-0.4,0.1-0.7,0.2-0.9C5.8,4.4,6,4.1,6.2,4C6.4,3.8,6.7,3.6,7,3.5c0.3-0.1,0.6-0.2,1-0.2c0.4,0,0.8,0.1,1.1,0.2
	C9.4,3.6,9.7,3.8,9.9,4c0.2,0.2,0.4,0.5,0.5,0.7c0.1,0.3,0.2,0.6,0.2,1c0,0.3,0,0.5-0.1,0.8C10.3,6.8,10.2,7,10,7.2
	C9.9,7.4,9.7,7.7,9.5,7.9C9.4,8.1,9.2,8.2,9,8.4C8.7,8.6,8.6,8.9,8.5,9.2C8.4,9.4,8.4,9.7,8.4,10H7.2z M7.2,12
	c0-0.2,0.1-0.3,0.2-0.5c0.1-0.1,0.3-0.2,0.5-0.2c0.2,0,0.4,0.1,0.5,0.2c0.1,0.1,0.2,0.3,0.2,0.5s-0.1,0.3-0.2,0.5s-0.3,0.2-0.5,0.2
	c-0.2,0-0.4-0.1-0.5-0.2C7.2,12.3,7.2,12.2,7.2,12z"/>
</svg>
