<?xml version="1.0" encoding="utf-8"?>
<!-- Generator: Adobe Illustrator 21.0.0, SVG Export Plug-In . SVG Version: 6.00 Build 0)  -->
<svg version="1.1" id="Слой_1" xmlns="http://www.w3.org/2000/svg" xmlns:xlink="http://www.w3.org/1999/xlink" x="0px" y="0px"
	 viewBox="0 0 16 16" style="enable-background:new 0 0 16 16;" xml:space="preserve">
<style type="text/css">
	.st0{fill:#6B6B6B;}
</style>
<path id="blocks_x2F_icons_x2F_phone_x2F_bright" class="st0" d="M8,0C3.6,0,0,3.6,0,8c0,4.4,3.6,8,8,8c0.3,0,0.5-0.2,0.5-0.5
	C8.5,15.2,8.3,15,8,15c-3.9,0-7-3.1-7-7c0-3.9,3.1-7,7-7c3.9,0,7,3.1,7,7c0,1.6-0.9,3.2-2.1,3.9c-0.4,0.2-0.9,0.4-1.4,0.4
	c0.3-0.2,0.6-0.4,0.8-0.7c0-0.1,0.1-0.1,0.1-0.2c0.2-0.4,0.2-0.8,0.3-1.2c0.1-0.5-2.3-1.5-2.5-0.9c-0.1,0.2-0.2,1-0.3,1.2
	c-0.1,0.2-0.5,0.1-0.7-0.1C8.6,9.9,8,9.2,7.4,8.7c0,0,0,0,0,0c0,0,0,0,0,0v0C6.8,8,6.1,7.4,5.7,6.9C5.5,6.7,5.4,6.3,5.6,6.2
	c0.2-0.2,1-0.3,1.2-0.3c0.7-0.2-0.4-2.6-0.9-2.5C5.5,3.5,5,3.5,4.7,3.6c-0.1,0-0.1,0.1-0.2,0.1c-1.4,0.9-1.5,3-0.2,4.6
	c0.5,0.6,1,1.2,1.6,1.8l0,0c0,0,0,0,0,0c0,0,0,0,0,0l0,0c0.6,0.5,1.2,1.4,2.3,2.1c2.3,1.5,4.1,1.1,5.1,0.5c1.8-1,2.6-3.1,2.6-4.8
	C16,3.6,12.4,0,8,0z"/>
</svg>
