<?xml version="1.0" encoding="utf-8"?>
<!-- Generator: Adobe Illustrator 21.0.0, SVG Export Plug-In . SVG Version: 6.00 Build 0)  -->
<svg version="1.1" id="Слой_1" xmlns="http://www.w3.org/2000/svg" xmlns:xlink="http://www.w3.org/1999/xlink" x="0px" y="0px"
	 viewBox="0 0 16 16" style="enable-background:new 0 0 16 16;" xml:space="preserve">
<style type="text/css">
	.st0{fill:#6B6B6B;}
</style>
<path id="blocks_x2F_icons_x2F_ruble" class="st0" d="M12.3,6.2c-0.1,0.4-0.3,0.7-0.6,1c-0.3,0.3-0.6,0.5-1.1,0.6S9.6,8,9,8H5.2V1.7
	H9c0.6,0,1.1,0.1,1.6,0.3c0.4,0.2,0.8,0.4,1.1,0.7c0.3,0.3,0.5,0.6,0.6,1c0.1,0.4,0.2,0.8,0.2,1.2C12.5,5.4,12.4,5.8,12.3,6.2
	 M14.3,2.9c-0.2-0.6-0.6-1.1-1.1-1.5s-1.1-0.8-1.8-1S9.9,0,9,0H3.1v8H2v1.7h1.1v2H2v1.7h1.1V16h2.1v-2.6h4.9v-1.7H5.2v-2H9
	c0.9,0,1.7-0.1,2.4-0.3c0.7-0.2,1.3-0.5,1.8-0.9S14,7.6,14.3,7c0.2-0.6,0.4-1.3,0.4-2.1C14.6,4.2,14.5,3.5,14.3,2.9"/>
</svg>
