<?xml version="1.0" encoding="utf-8"?>
<!-- Generator: Adobe Illustrator 21.0.0, SVG Export Plug-In . SVG Version: 6.00 Build 0)  -->
<svg version="1.1" id="Слой_1" xmlns="http://www.w3.org/2000/svg" xmlns:xlink="http://www.w3.org/1999/xlink" x="0px" y="0px"
	 viewBox="0 0 16 16" style="enable-background:new 0 0 16 16;" xml:space="preserve">
<style type="text/css">
	.st0{fill:#6B6B6B;}
</style>
<path id="blocks_x2F_icons_x2F_time" class="st0" d="M12.8,7.2h-4V3.3H7.2v5.6h5.6V7.2z M8,0C3.6,0,0,3.6,0,8c0,4.4,3.6,8,8,8
	c4.4,0,8-3.6,8-8C16,3.6,12.4,0,8,0L8,0z M8,2c3.3,0,6,2.7,6,6c0,3.3-2.7,6-6,6c-3.3,0-6-2.7-6-6C2,4.7,4.7,2,8,2L8,2z"/>
</svg>
